<svg xmlns="http://www.w3.org/2000/svg" width="16" height="6" viewBox="0 0 16 6" fill="none">
  <path fill-rule="evenodd" clip-rule="evenodd" d="M11.944 0.646009C11.8976 0.599446 11.8424 0.562503 11.7817 0.537296C11.7209 0.51209 11.6558 0.499115 11.59 0.499115C11.5243 0.499115 11.4592 0.51209 11.3984 0.537296C11.3377 0.562503 11.2825 0.599446 11.236 0.646009L7.59005 4.29301L3.94405 0.646009C3.85016 0.552122 3.72282 0.499377 3.59005 0.499377C3.45727 0.499377 3.32993 0.552122 3.23605 0.646009C3.14216 0.739895 3.08942 0.867233 3.08942 1.00001C3.08942 1.13278 3.14216 1.26012 3.23605 1.35401L7.23605 5.35401C7.28249 5.40057 7.33767 5.43751 7.39841 5.46272C7.45916 5.48793 7.52428 5.5009 7.59005 5.5009C7.65582 5.5009 7.72094 5.48793 7.78168 5.46272C7.84243 5.43751 7.8976 5.40057 7.94405 5.35401L11.944 1.35401C11.9906 1.30756 12.0276 1.25239 12.0528 1.19164C12.078 1.1309 12.0909 1.06578 12.0909 1.00001C12.0909 0.934241 12.078 0.86912 12.0528 0.808375C12.0276 0.74763 11.9906 0.692454 11.944 0.646009Z" fill="#121212"/>
</svg>