<svg width="11" height="11" viewBox="0 0 11 11" fill="none" xmlns="http://www.w3.org/2000/svg" class="ms-1">
                                <path d="M1.14649 10.2062C0.853594 9.91328 0.853594 9.43841 1.14649 9.14551L9.64651 0.645497C9.93941 0.352597 10.4142 0.352597 10.7071 0.645497C11 0.938397 11 1.4133 10.7071 1.7062L2.20715 10.2062C1.91425 10.4991 1.43938 10.4991 1.14649 10.2062Z" fill="currentColor"></path>
                                <path d="M0.426757 1.1758C0.426757 0.761602 0.762537 0.425802 1.17676 0.425802L10.1768 0.425802C10.591 0.425802 10.9268 0.761602 10.9268 1.1758L10.9268 10.1758C10.9268 10.5901 10.591 10.9258 10.1768 10.9258C9.7625 10.9258 9.4268 10.5901 9.4268 10.1758L9.4268 1.9258L1.17676 1.9258C0.762537 1.9258 0.426757 1.5901 0.426757 1.1758Z" fill="currentColor"></path>
                              </svg>