<svg width="16" height="16" viewBox="0 0 16 16" fill="none" xmlns="http://www.w3.org/2000/svg">
                  <path d="M1.26965 7.67578C1.26964 7.26157 1.60543 6.92578 2.01965 6.92578L14.0405 6.92579C14.4547 6.92579 14.7904 7.26152 14.7904 7.67575C14.7904 8.08997 14.4546 8.42577 14.0404 8.42577L2.01965 8.42578C1.60543 8.42578 1.26964 8.09 1.26965 7.67578Z" fill="currentColor"></path>
                  <path d="M7.14627 0.781462C7.43916 0.488578 7.91403 0.488564 8.20693 0.781462L14.5709 7.14545C14.8638 7.43833 14.8638 7.91323 14.5709 8.20611L8.20693 14.5701C7.91403 14.863 7.43916 14.863 7.14627 14.5701C6.85332 14.2771 6.85337 13.8023 7.14627 13.5094L12.9799 7.67578L7.14627 1.84212C6.85337 1.54922 6.85332 1.07442 7.14627 0.781462Z" fill="currentColor"></path>
                </svg>