<svg width="16" height="17" viewBox="0 0 16 17" fill="none" xmlns="http://www.w3.org/2000/svg">
        <path d="M11.3333 14.6667H4.66665C2.23331 14.6667 0.833313 13.2667 0.833313 10.8333V6.16667C0.833313 3.73334 2.23331 2.33334 4.66665 2.33334H11.3333C13.7666 2.33334 15.1666 3.73334 15.1666 6.16667V10.8333C15.1666 13.2667 13.7666 14.6667 11.3333 14.6667ZM4.66665 3.33334C2.75998 3.33334 1.83331 4.26 1.83331 6.16667V10.8333C1.83331 12.74 2.75998 13.6667 4.66665 13.6667H11.3333C13.24 13.6667 14.1666 12.74 14.1666 10.8333V6.16667C14.1666 4.26 13.24 3.33334 11.3333 3.33334H4.66665Z" fill="currentColor"></path>
        <path d="M7.99987 9.07998C7.43987 9.07998 6.87321 8.90665 6.43987 8.55331L4.3532 6.88665C4.13987 6.71331 4.09987 6.39998 4.27321 6.18665C4.44654 5.97331 4.75988 5.93332 4.97321 6.10665L7.05987 7.77332C7.56654 8.17998 8.42654 8.17998 8.9332 7.77332L11.0199 6.10665C11.2332 5.93332 11.5532 5.96665 11.7199 6.18665C11.8932 6.39998 11.8599 6.71998 11.6399 6.88665L9.55321 8.55331C9.12654 8.90665 8.55987 9.07998 7.99987 9.07998Z" fill="currentColor"></path>
      </svg>