<svg width="26" height="23" viewBox="0 0 26 23" fill="none" xmlns="http://www.w3.org/2000/svg">
          <path d="M13 22.4764C12.6496 22.4764 12.3117 22.3495 12.0484 22.1188C11.054 21.2493 10.0953 20.4322 9.24943 19.7114L9.24512 19.7077C6.76521 17.5944 4.62373 15.7693 3.13372 13.9715C1.46812 11.9617 0.692322 10.0561 0.692322 7.97429C0.692322 5.95169 1.38587 4.08571 2.64507 2.71984C3.91929 1.33781 5.66771 0.57666 7.56881 0.57666C8.98971 0.57666 10.291 1.02588 11.4364 1.91173C12.0144 2.35888 12.5384 2.90613 13 3.54447C13.4618 2.90613 13.9856 2.35888 14.5638 1.91173C15.7092 1.02588 17.0105 0.57666 18.4314 0.57666C20.3323 0.57666 22.0809 1.33781 23.3551 2.71984C24.6143 4.08571 25.3077 5.95169 25.3077 7.97429C25.3077 10.0561 24.532 11.9617 22.8664 13.9713C21.3764 15.7693 19.2351 17.5942 16.7556 19.7073C15.9083 20.4292 14.948 21.2476 13.9514 22.1192C13.6883 22.3495 13.3502 22.4764 13 22.4764ZM7.56881 2.01859C6.07524 2.01859 4.70317 2.61467 3.70501 3.69715C2.69202 4.79597 2.13406 6.31489 2.13406 7.97429C2.13406 9.72515 2.78479 11.291 4.24381 13.0515C5.654 14.7531 7.75154 16.5406 10.1802 18.6104L10.1847 18.6141C11.0337 19.3377 11.9962 20.158 12.9979 21.0339C14.0057 20.1563 14.9696 19.3347 15.8204 18.61C18.2488 16.5402 20.3462 14.7531 21.7564 13.0515C23.2152 11.291 23.8659 9.72515 23.8659 7.97429C23.8659 6.31489 23.308 4.79597 22.295 3.69715C21.297 2.61467 19.9247 2.01859 18.4314 2.01859C17.3372 2.01859 16.3327 2.3664 15.4457 3.05224C14.6553 3.66372 14.1046 4.4367 13.7818 4.97757C13.6158 5.2557 13.3236 5.42172 13 5.42172C12.6764 5.42172 12.3842 5.2557 12.2182 4.97757C11.8955 4.4367 11.3449 3.66372 10.5543 3.05224C9.66729 2.3664 8.66275 2.01859 7.56881 2.01859Z" fill="currentColor"></path>
        </svg>