<svg width="16" height="17" viewBox="0 0 16 17" fill="none" xmlns="http://www.w3.org/2000/svg">
        <path d="M14.6467 12.72C14.6467 12.96 14.5933 13.2067 14.48 13.4467C14.3667 13.6867 14.22 13.9133 14.0267 14.1267C13.7 14.4867 13.34 14.7467 12.9333 14.9133C12.5333 15.08 12.1 15.1667 11.6333 15.1667C10.9533 15.1667 10.2267 15.0067 9.46001 14.68C8.69334 14.3533 7.92668 13.9133 7.16668 13.36C6.40001 12.8 5.67334 12.18 4.98001 11.4933C4.29334 10.8 3.67334 10.0733 3.12001 9.31334C2.57334 8.55334 2.13334 7.79334 1.81334 7.04C1.49334 6.28 1.33334 5.55334 1.33334 4.86C1.33334 4.40667 1.41334 3.97334 1.57334 3.57334C1.73334 3.16667 1.98668 2.79334 2.34001 2.46C2.76668 2.04 3.23334 1.83334 3.72668 1.83334C3.91334 1.83334 4.10001 1.87334 4.26668 1.95334C4.44001 2.03334 4.59334 2.15334 4.71334 2.32667L6.26001 4.50667C6.38001 4.67334 6.46668 4.82667 6.52668 4.97334C6.58668 5.11334 6.62001 5.25334 6.62001 5.38C6.62001 5.54 6.57334 5.7 6.48001 5.85334C6.39334 6.00667 6.26668 6.16667 6.10668 6.32667L5.60001 6.85334C5.52668 6.92667 5.49334 7.01334 5.49334 7.12C5.49334 7.17334 5.50001 7.22 5.51334 7.27334C5.53334 7.32667 5.55334 7.36667 5.56668 7.40667C5.68668 7.62667 5.89334 7.91334 6.18668 8.26C6.48668 8.60667 6.80668 8.96 7.15334 9.31334C7.51334 9.66667 7.86001 9.99334 8.21334 10.2933C8.56001 10.5867 8.84668 10.7867 9.07334 10.9067C9.10668 10.92 9.14668 10.94 9.19334 10.96C9.24668 10.98 9.30001 10.9867 9.36001 10.9867C9.47334 10.9867 9.56001 10.9467 9.63334 10.8733L10.14 10.3733C10.3067 10.2067 10.4667 10.08 10.62 10C10.7733 9.90667 10.9267 9.86 11.0933 9.86C11.22 9.86 11.3533 9.88667 11.5 9.94667C11.6467 10.0067 11.8 10.0933 11.9667 10.2067L14.1733 11.7733C14.3467 11.8933 14.4667 12.0333 14.54 12.2C14.6067 12.3667 14.6467 12.5333 14.6467 12.72Z" stroke="currentColor" stroke-miterlimit="10"></path>
        <path d="M12.3333 6.5C12.3333 6.1 12.02 5.48666 11.5533 4.98666C11.1267 4.52666 10.56 4.16666 10 4.16666" stroke="currentColor" stroke-linecap="round" stroke-linejoin="round"></path>
        <path d="M14.6667 6.5C14.6667 3.92 12.58 1.83334 10 1.83334" stroke="currentColor" stroke-linecap="round" stroke-linejoin="round"></path>
      </svg>