<svg width="20" height="20" viewBox="0 0 20 20" fill="none" xmlns="http://www.w3.org/2000/svg">
                <path d="M9.58329 17.625C5.1511 17.625 1.54163 14.0155 1.54163 9.58334C1.54163 5.15115 5.1511 1.54167 9.58329 1.54167C14.0155 1.54167 17.625 5.15115 17.625 9.58334C17.625 14.0155 14.0155 17.625 9.58329 17.625ZM9.58329 1.79167C5.28178 1.79167 1.79163 5.2909 1.79163 9.58334C1.79163 13.8758 5.28178 17.375 9.58329 17.375C13.8848 17.375 17.375 13.8758 17.375 9.58334C17.375 5.2909 13.8848 1.79167 9.58329 1.79167Z" fill="currentColor" stroke="currentColor"></path>
                <path d="M18.3333 18.4583C18.3156 18.4583 18.3001 18.4551 18.2868 18.4497C18.2739 18.4446 18.2599 18.4361 18.2452 18.4214L16.5785 16.7548C16.557 16.7333 16.5437 16.7025 16.5437 16.6667C16.5437 16.6308 16.557 16.6001 16.5785 16.5786C16.6 16.557 16.6308 16.5437 16.6666 16.5437C16.7025 16.5437 16.7332 16.557 16.7547 16.5786L18.4214 18.2452C18.4429 18.2667 18.4562 18.2975 18.4562 18.3333C18.4562 18.3692 18.4429 18.3999 18.4214 18.4214C18.4067 18.4361 18.3927 18.4446 18.3798 18.4497C18.3665 18.4551 18.351 18.4583 18.3333 18.4583Z" fill="currentColor" stroke="currentColor"></path>
              </svg>